<svg width="88" height="88" viewBox="0 0 88 88" fill="none" xmlns="http://www.w3.org/2000/svg">
<g id="3" clip-path="url(#clip0_816_2583)">
<rect width="88" height="88" fill="white"/>
<g id="Group 427319706">
<path id="Ellipse 152" d="M56.3029 32.4574C58.8233 38.6541 64.5114 44.9023 70.0739 42.64C75.6364 40.3776 76.4647 31.479 73.9443 25.2822C71.424 19.0854 65.0001 14.2265 59.4377 16.4889C53.8752 18.7512 53.7825 26.2606 56.3029 32.4574Z" fill="#A3C5FF"/>
<path id="Ellipse 2" d="M69.1946 38.1583C76.4385 58.3009 73.1229 75.7985 61.8957 81.363C60.1845 82.2111 57.7874 83.0761 53.4499 83.8253C48.5247 84.6761 43.7098 84.1259 41.1872 83.6029C29.9883 80.8618 23.9489 67.6862 19.7276 55.9483C12.4837 35.8057 15.7463 19.9791 32.5509 13.9356C49.3556 7.89211 61.9507 18.0158 69.1946 38.1583Z" fill="#4F81FF"/>
<path id="Vector 125 (Stroke)" fill-rule="evenodd" clip-rule="evenodd" d="M13.8805 40.5629L13.2481 37.5159C12.4474 33.658 12.1484 27.0794 14.4284 20.7486C16.7701 14.2463 21.839 8.0598 31.4668 5.56097C39.4552 3.48764 46.2754 5.20878 51.4311 8.1902C56.4984 11.1205 60.0315 15.3032 61.6552 18.4356L63.0873 21.1985L57.5617 24.0627L56.1296 21.2998C55.0491 19.2154 52.3495 15.9109 48.3154 13.5781C44.3698 11.2964 39.2202 9.97871 33.0303 11.5852C25.6452 13.502 22.023 18.0291 20.2841 22.8575C18.4835 27.8572 18.7143 33.226 19.3421 36.2511L19.9745 39.2981L13.8805 40.5629Z" fill="#A3C5FF"/>
<g id="Mask group">
<mask id="mask0_816_2583" style="mask-type:alpha" maskUnits="userSpaceOnUse" x="16" y="12" width="58" height="73">
<path id="Ellipse 153" d="M69.1946 38.1583C76.4385 58.3009 73.1229 75.7985 61.8957 81.363C60.1845 82.2111 57.7874 83.0761 53.4499 83.8253C48.5247 84.6761 43.7098 84.1259 41.1872 83.6029C29.9883 80.8618 23.9489 67.6862 19.7276 55.9483C12.4837 35.8057 15.7463 19.9791 32.5509 13.9356C49.3556 7.89211 61.9507 18.0158 69.1946 38.1583Z" fill="#4F81FF"/>
</mask>
<g mask="url(#mask0_816_2583)">
<path id="Rectangle 3609" d="M41.6748 3.79736H79.226V49.2564H41.6748V3.79736Z" fill="#4F81FF"/>
</g>
</g>
<path id="Ellipse 9" d="M40.3282 27.902C43.6142 29.9903 44.5852 34.3471 42.4968 37.6331C40.4085 40.9191 36.0518 41.89 32.7658 39.8017C29.4798 37.7134 28.5088 33.3567 30.5971 30.0707C32.6854 26.7846 37.0422 25.8137 40.3282 27.902Z" fill="white"/>
<path id="Ellipse 11" d="M53.3927 22.7668C56.6787 24.8551 57.6496 29.2118 55.5613 32.4978C53.473 35.7838 49.1162 36.7548 45.8302 34.6665C42.5442 32.5782 41.5733 28.2214 43.6616 24.9354C45.7499 21.6494 50.1066 20.6784 53.3927 22.7668Z" fill="white"/>
<path id="Vector 125 (Stroke)_2" fill-rule="evenodd" clip-rule="evenodd" d="M40.1707 31.3193C40.5626 31.1734 40.9985 31.3728 41.1444 31.7646C41.3351 32.2768 41.5092 33.0915 41.3939 33.9067C41.2737 34.7562 40.821 35.661 39.7288 36.1091C38.7308 36.5185 37.8537 36.3942 37.1781 36.0242C36.5368 35.673 36.1147 35.1239 35.9093 34.7032C35.7258 34.3275 35.8816 33.8742 36.2573 33.6907C36.6331 33.5072 37.0864 33.663 37.2699 34.0387C37.3639 34.2311 37.5863 34.5214 37.9053 34.6961C38.1901 34.852 38.5892 34.94 39.154 34.7082C39.6247 34.5152 39.8288 34.1598 39.8946 33.6945C39.9653 33.1949 39.8547 32.6403 39.7254 32.293C39.5795 31.9012 39.7789 31.4652 40.1707 31.3193Z" fill="black"/>
<path id="Vector 126 (Stroke)" fill-rule="evenodd" clip-rule="evenodd" d="M48.6697 27.309C49.0616 27.1631 49.4975 27.3625 49.6434 27.7544C49.8342 28.2666 50.0083 29.0813 49.8929 29.8964C49.7727 30.746 49.3201 31.6508 48.2278 32.0989C47.2298 32.5083 46.3527 32.3839 45.6771 32.014C45.0358 31.6628 44.6138 31.1137 44.4083 30.693C44.2248 30.3173 44.3806 29.8639 44.7564 29.6804C45.1321 29.4969 45.5854 29.6527 45.7689 30.0285C45.8629 30.2209 46.0853 30.5111 46.4044 30.6858C46.6891 30.8418 47.0882 30.9297 47.6531 30.698C48.1237 30.5049 48.3278 30.1495 48.3936 29.6843C48.4643 29.1847 48.3537 28.63 48.2244 28.2828C48.0785 27.8909 48.2779 27.455 48.6697 27.309Z" fill="black"/>
<path id="Vector 127 (Stroke)" fill-rule="evenodd" clip-rule="evenodd" d="M49.3246 36.9199C49.7394 36.9727 50.0328 37.3518 49.98 37.7666C49.902 38.3793 49.5321 39.0677 49.079 39.6354C48.6157 40.2161 47.9747 40.785 47.2348 41.0886C46.6062 41.3464 45.8689 41.5723 45.1631 41.685C44.488 41.7928 43.7125 41.8191 43.093 41.547C42.7102 41.3788 42.5361 40.9321 42.7043 40.5493C42.8725 40.1665 43.3192 39.9925 43.702 40.1606C43.91 40.252 44.3241 40.2856 44.9243 40.1898C45.4939 40.0988 46.1178 39.9101 46.66 39.6877C47.0909 39.5109 47.5374 39.1396 47.8955 38.6909C48.2639 38.2293 48.4494 37.7993 48.4779 37.5754C48.5307 37.1606 48.9098 36.8671 49.3246 36.9199Z" fill="#383838"/>
<path id="Ellipse 151" d="M26.3164 44.5465C28.369 50.8023 27.9872 59.1424 22.1877 61.0453C16.3882 62.9482 9.97593 56.8373 7.92331 50.5815C5.87069 44.3257 7.72593 36.548 13.5254 34.6451C19.3249 32.7422 24.2638 38.2907 26.3164 44.5465Z" fill="#A3C5FF"/>
</g>
</g>
<defs>
<clipPath id="clip0_816_2583">
<rect width="88" height="88" fill="white"/>
</clipPath>
</defs>
</svg>
