<svg width="28" height="29" viewBox="0 0 28 29" fill="none" xmlns="http://www.w3.org/2000/svg">
<g id="bacon">
<g id="bacon_2">
<path id="Vector" d="M21.3498 3.44934L26.0748 8.17434L24.4123 9.92434C24.0034 10.3193 23.6828 10.7965 23.4717 11.3243C23.2605 11.8522 23.1636 12.4188 23.1873 12.9868C23.1873 15.0868 22.7498 18.4118 20.1248 20.5993C17.7562 22.3824 14.9391 23.4729 11.9873 23.7493C11.047 23.923 10.1707 24.3461 9.44984 24.9743L7.6123 26.8993" stroke="white" stroke-width="2" stroke-linecap="round" stroke-linejoin="round"/>
<path id="Vector_2" d="M7.61251 26.8993L2.625 21.9118L5.77503 18.8493C6.45022 18.1549 7.34881 17.7211 8.3125 17.6243C9.975 17.4493 12.6 16.9243 14.2625 15.4368C15.925 13.9493 16.625 10.7118 16.975 8.87434C17.1486 7.98574 17.5738 7.16571 18.2 6.51184L21.35 3.44934" stroke="white" stroke-width="2" stroke-linecap="round" stroke-linejoin="round"/>
<path id="Vector_3" d="M7.875 21.9119C8.75392 21.0981 9.84666 20.5517 11.025 20.3369C12.6875 20.1619 15.3125 19.6369 16.975 18.0619C18.6375 16.4869 19.3375 13.4244 19.6875 11.5869C20.0139 10.5358 20.5835 9.57653 21.35 8.78687" stroke="white" stroke-width="2" stroke-linecap="round" stroke-linejoin="round"/>
</g>
</g>
</svg>
