<svg width="24" height="24" viewBox="0 0 24 24" fill="none" xmlns="http://www.w3.org/2000/svg">
<g id="cookie 1">
<path id="Vector" d="M10.05 22.4496C14.772 22.4496 18.6 18.6216 18.6 13.8996C18.6 9.17757 14.772 5.34961 10.05 5.34961C5.32797 5.34961 1.5 9.17757 1.5 13.8996C1.5 18.6216 5.32797 22.4496 10.05 22.4496Z" stroke="#6BA1FF" stroke-width="1.5" stroke-linecap="round" stroke-linejoin="round"/>
<path id="Vector_2" d="M12.75 3.32443C13.8341 2.24036 15.3044 1.63135 16.8375 1.63135C18.3706 1.63135 19.8409 2.24036 20.925 3.32443C22.0091 4.4085 22.6181 5.87883 22.6181 7.41194C22.6181 8.94505 22.0091 10.4154 20.925 11.4994" stroke="#6BA1FF" stroke-width="1.5" stroke-linecap="round" stroke-linejoin="round"/>
<path id="Vector_3" d="M17.4001 6.39931C17.98 6.39931 18.4501 5.92921 18.4501 5.34931C18.4501 4.76941 17.98 4.29932 17.4001 4.29932C16.8202 4.29932 16.3501 4.76941 16.3501 5.34931C16.3501 5.92921 16.8202 6.39931 17.4001 6.39931Z" fill="#6BA1FF"/>
<path id="Vector_4" d="M10.05 15.4745C10.6299 15.4745 11.1 15.0044 11.1 14.4245C11.1 13.8446 10.6299 13.3745 10.05 13.3745C9.4701 13.3745 9 13.8446 9 14.4245C9 15.0044 9.4701 15.4745 10.05 15.4745Z" fill="#6BA1FF"/>
<path id="Vector_5" d="M11.0998 10.5243C11.6797 10.5243 12.1498 10.0542 12.1498 9.47431C12.1498 8.89441 11.6797 8.42432 11.0998 8.42432C10.5199 8.42432 10.0498 8.89441 10.0498 9.47431C10.0498 10.0542 10.5199 10.5243 11.0998 10.5243Z" fill="#6BA1FF"/>
<path id="Vector_6" d="M14.7751 16.5243C15.355 16.5243 15.8251 16.0542 15.8251 15.4743C15.8251 14.8944 15.355 14.4243 14.7751 14.4243C14.1952 14.4243 13.7251 14.8944 13.7251 15.4743C13.7251 16.0542 14.1952 16.5243 14.7751 16.5243Z" fill="#6BA1FF"/>
<path id="Vector_7" d="M7.6501 19.5243C8.23 19.5243 8.7001 19.0542 8.7001 18.4743C8.7001 17.8944 8.23 17.4243 7.6501 17.4243C7.0702 17.4243 6.6001 17.8944 6.6001 18.4743C6.6001 19.0542 7.0702 19.5243 7.6501 19.5243Z" fill="#6BA1FF"/>
<path id="Vector_8" d="M6.0002 13.0746C6.58009 13.0746 7.0502 12.6045 7.0502 12.0246C7.0502 11.4447 6.58009 10.9746 6.0002 10.9746C5.4203 10.9746 4.9502 11.4447 4.9502 12.0246C4.9502 12.6045 5.4203 13.0746 6.0002 13.0746Z" fill="#6BA1FF"/>
</g>
</svg>
