<svg width="27" height="27" viewBox="0 0 27 27" fill="none" xmlns="http://www.w3.org/2000/svg">
<g id="croissant">
<g id="croissant_2">
<path id="Vector" d="M12.9954 15.2085L20.4704 8.30225C20.5807 8.19164 20.6651 8.05794 20.7175 7.9108C20.7699 7.76366 20.789 7.60674 20.7735 7.45131C20.758 7.29589 20.7082 7.14584 20.6276 7.01199C20.5471 6.87813 20.4379 6.76382 20.3079 6.67725C15.4329 3.8335 10.5579 3.8335 5.60167 6.67725C5.47166 6.76382 5.36248 6.87813 5.28197 7.01199C5.20147 7.14584 5.15164 7.29589 5.1361 7.45131C5.12056 7.60674 5.13968 7.76366 5.19209 7.9108C5.2445 8.05794 5.32888 8.19164 5.43918 8.30225L12.9954 15.2085Z" stroke="#5C8DFF" stroke-width="1.5" stroke-linecap="round" stroke-linejoin="round"/>
<g id="Group">
<path id="Vector_2" d="M12.9952 15.2086H3.08275C2.85869 15.2098 2.63769 15.1566 2.43882 15.0533C2.23995 14.9501 2.06917 14.8001 1.94122 14.6161C1.81327 14.4322 1.73198 14.2199 1.70438 13.9976C1.67677 13.7752 1.70366 13.5495 1.78274 13.3398C2.41414 11.3012 3.77335 9.56604 5.60149 8.46484" stroke="#5C8DFF" stroke-width="1.5" stroke-linecap="round" stroke-linejoin="round"/>
<path id="Vector_3" d="M12.9951 15.2086H22.8264C23.0504 15.2098 23.2714 15.1566 23.4703 15.0533C23.6692 14.9501 23.8399 14.8001 23.9679 14.6161C24.0958 14.4322 24.1771 14.2199 24.2047 13.9976C24.2324 13.7752 24.2054 13.5495 24.1264 13.3398C23.495 11.3012 22.1358 9.56604 20.3076 8.46484" stroke="#5C8DFF" stroke-width="1.5" stroke-linecap="round" stroke-linejoin="round"/>
</g>
<g id="Group_2">
<path id="Vector_4" d="M2.59529 15.2085C2.27029 17.5647 3.08279 19.921 4.62654 22.2772L12.1828 15.2085" stroke="#5C8DFF" stroke-width="1.5" stroke-linecap="round" stroke-linejoin="round"/>
<path id="Vector_5" d="M23.3139 15.2085C23.6389 17.5647 22.8264 19.921 21.2826 22.2772L13.8076 15.2085" stroke="#5C8DFF" stroke-width="1.5" stroke-linecap="round" stroke-linejoin="round"/>
</g>
</g>
</g>
</svg>
