<svg width="21" height="23" viewBox="0 0 21 23" fill="none" xmlns="http://www.w3.org/2000/svg">
<g id="noodles">
<path id="Vector" d="M1.4502 12.4325C1.4502 14.8393 2.40631 17.1476 4.1082 18.8495C5.81009 20.5514 8.11836 21.5075 10.5252 21.5075C12.932 21.5075 15.2403 20.5514 16.9422 18.8495C18.6441 17.1476 19.6002 14.8393 19.6002 12.4325H1.4502Z" stroke="#6BA1FF" stroke-width="1.5" stroke-linecap="round" stroke-linejoin="round"/>
<path id="Vector_2" d="M3.3252 9.35744C3.45809 8.38763 3.93774 7.49876 4.6754 6.85529C5.41307 6.21182 6.35882 5.8573 7.3377 5.8573C8.31658 5.8573 9.26232 6.21182 9.99998 6.85529C10.7376 7.49876 11.2173 8.38763 11.3502 9.35744" stroke="#6BA1FF" stroke-width="1.5" stroke-linecap="round" stroke-linejoin="round"/>
<path id="Vector_3" d="M8.72461 5.38242C9.26911 4.7665 9.93885 4.27392 10.689 3.93763C11.4392 3.60135 12.2525 3.4291 13.0746 3.43242C13.8492 3.43236 14.6161 3.58612 15.3308 3.88479C16.0455 4.18346 16.6937 4.62109 17.2379 5.17228C17.7821 5.72347 18.2115 6.37725 18.501 7.09569C18.7906 7.81412 18.9345 8.58291 18.9246 9.35743" stroke="#6BA1FF" stroke-width="1.5" stroke-linecap="round" stroke-linejoin="round"/>
<path id="Vector_4" d="M10.6748 7.18244C11.2599 6.68475 12.0068 6.41802 12.7748 6.43244C13.6372 6.43222 14.4654 6.76959 15.0821 7.37233C15.6989 7.97507 16.0552 8.79529 16.0748 9.65744" stroke="#6BA1FF" stroke-width="1.5" stroke-linecap="round" stroke-linejoin="round"/>
<path id="Vector_5" d="M6.10038 5.60745L1.52539 1.25745" stroke="#6BA1FF" stroke-width="1.5" stroke-linecap="round" stroke-linejoin="round"/>
<path id="Vector_6" d="M3.625 7.85745L1 5.38245" stroke="#6BA1FF" stroke-width="1.5" stroke-linecap="round" stroke-linejoin="round"/>
</g>
</svg>
