<svg width="28" height="29" viewBox="0 0 28 29" fill="none" xmlns="http://www.w3.org/2000/svg">
<g id="loaf of bread 3">
<g id="loaf of bread 3_2">
<g id="hleb 2">
<path id="Vector" d="M12.354 5.4814C12.9164 5.27545 13.5144 5.1848 14.1125 5.21485C14.7106 5.2449 15.2966 5.39503 15.8355 5.6563C16.3744 5.91758 16.8551 6.28464 17.2492 6.73563C17.6432 7.18663 17.9424 7.71231 18.129 8.28138" stroke="white" stroke-width="2" stroke-miterlimit="10" stroke-linecap="round"/>
<path id="Vector_2" d="M19.1791 5.83138C20.2234 5.2164 21.4692 5.04146 22.6425 5.34504C23.8158 5.64861 24.8204 6.40584 25.4354 7.45013C26.0504 8.49442 26.2253 9.74022 25.9217 10.9135C25.6181 12.0868 24.8609 13.0914 23.8166 13.7064C23.0996 14.1219 22.2827 14.3337 21.4541 14.3189H6.40413C5.33036 14.3567 4.27896 14.0058 3.44311 13.3307C2.60725 12.6556 2.04307 11.7016 1.85412 10.6439C1.72643 10.0631 1.71607 9.46273 1.82368 8.87793C1.93129 8.29314 2.15467 7.73575 2.48073 7.23851C2.8068 6.74127 3.22898 6.31418 3.72242 5.98238C4.21585 5.65058 4.77061 5.42075 5.35412 5.30637C6.54822 5.07319 7.78611 5.31861 8.80093 5.9897C9.81575 6.66079 10.5262 7.70381 10.7791 8.89388" stroke="white" stroke-width="2" stroke-linecap="round" stroke-linejoin="round"/>
</g>
<path id="Vector_3" d="M25.2167 12.5688V23.0688C25.2167 23.533 25.0323 23.9781 24.7041 24.3063C24.3759 24.6345 23.9308 24.8188 23.4667 24.8188H4.3042C3.84007 24.8188 3.39498 24.6345 3.06679 24.3063C2.7386 23.9781 2.5542 23.533 2.5542 23.0688V12.5688" stroke="white" stroke-width="2" stroke-linecap="round" stroke-linejoin="round"/>
</g>
</g>
</svg>
