<svg width="25" height="24" viewBox="0 0 25 24" fill="none" xmlns="http://www.w3.org/2000/svg">
<g id="icon">
<path id="Vector" d="M16.1731 21.1L7.74814 12.7C7.64814 12.6 7.57748 12.4917 7.53614 12.375C7.49414 12.2584 7.47314 12.1334 7.47314 12C7.47314 11.8667 7.49414 11.7417 7.53614 11.625C7.57748 11.5084 7.64814 11.4 7.74814 11.3L16.1731 2.87502C16.4065 2.64169 16.6981 2.52502 17.0481 2.52502C17.3981 2.52502 17.6981 2.65002 17.9481 2.90002C18.1981 3.15002 18.3231 3.44169 18.3231 3.77502C18.3231 4.10836 18.1981 4.40002 17.9481 4.65002L10.5981 12L17.9481 19.35C18.1815 19.5834 18.2981 19.8707 18.2981 20.212C18.2981 20.554 18.1731 20.85 17.9231 21.1C17.6731 21.35 17.3815 21.475 17.0481 21.475C16.7148 21.475 16.4231 21.35 16.1731 21.1Z" fill="#989898"/>
</g>
</svg>
