<svg width="326" height="161" viewBox="0 0 326 161" fill="none" xmlns="http://www.w3.org/2000/svg">
<rect opacity="0.2" x="5" y="99" width="317" height="62" rx="8" fill="url(#paint0_linear_2564_46)"/>
<g filter="url(#filter0_d_2564_46)">
<path d="M152.404 109.56C131.14 101.651 132.922 73.4338 139.089 56.8517C145.257 40.2696 173.291 26.8598 199.254 36.5162C225.217 46.1727 233.157 71.2996 230.135 90.034C227.881 98.6868 221.77 105.488 212.839 109.56C206.892 112.272 199.686 111.872 189.98 111.872C162.108 111.872 160.45 112.553 152.404 109.56Z" fill="#5C7CFF" fill-opacity="0.99"/>
</g>
<ellipse cx="181.361" cy="56.2612" rx="8.58292" ry="10.1942" transform="rotate(-2.24886 181.361 56.2612)" fill="white"/>
<ellipse cx="186.609" cy="56.6091" rx="3.98957" ry="3.98957" transform="rotate(-38.7973 186.609 56.6091)" fill="#1B1B1B"/>
<ellipse cx="202.189" cy="57.4299" rx="8.58292" ry="10.1942" transform="rotate(-2.24886 202.189 57.4299)" fill="white"/>
<ellipse cx="197.171" cy="57.1707" rx="3.98957" ry="3.98957" transform="rotate(-21.4137 197.171 57.1707)" fill="#1B1B1B"/>
<path d="M194.031 68.9001C193.502 70.3218 191.626 71.8398 190.204 71.3111C188.783 70.7823 188.354 68.407 188.883 66.9853C189.412 65.5636 190.508 66.1427 191.93 66.6715C193.352 67.2003 194.56 67.4785 194.031 68.9001Z" fill="#383838"/>
<g opacity="0.99" filter="url(#filter1_d_2564_46)">
<path d="M143.345 49.1583C151.356 79.057 146.689 103.21 127.308 109.094C125.381 109.679 122.361 109.715 120.57 109.679C106.822 109.679 92.5681 109.679 86.813 109.679C71.4217 110.389 74.5869 86.2561 69.9183 68.8329C61.907 38.9342 68.5157 16.5209 93.4597 9.83721C118.404 3.15347 135.334 19.2596 143.345 49.1583Z" fill="#FFCC00" fill-opacity="0.99"/>
</g>
<ellipse cx="100.284" cy="41.2839" rx="10.1942" ry="10.1942" transform="rotate(-52.7833 100.284 41.2839)" fill="white"/>
<ellipse cx="116.284" cy="34.2839" rx="10.1942" ry="10.1942" transform="rotate(-52.7833 116.284 34.2839)" fill="white"/>
<g filter="url(#filter2_d_2564_46)">
<path d="M88.8426 68.116C88.8426 84.3476 82.7767 107.288 72.2638 110.046C70.3733 110.542 70.6589 110.783 65.4723 110.783C63.8659 110.783 43.5627 110.783 29.7104 110.783C12.8209 110.783 2.62777 86.8382 4.14969 68.116C6.04458 44.8056 23.1088 25.7695 46.4961 25.7695C69.8834 25.7695 88.8426 44.7287 88.8426 68.116Z" fill="#FF4F4F" fill-opacity="0.99"/>
</g>
<g filter="url(#filter3_d_2564_46)">
<path d="M322 68.3395C322 84.5685 316.28 107.506 306.368 110.263C304.585 110.758 304.854 111 299.964 111C298.449 111 279.305 111 266.243 111C250.317 111 240.706 87.0587 242.141 68.3395C243.928 45.0329 260.018 26 282.071 26C304.123 26 322 44.956 322 68.3395Z" fill="#4FFF81" fill-opacity="0.99"/>
</g>
<ellipse cx="34.5559" cy="49.5655" rx="10.1942" ry="10.1942" transform="rotate(-23.9729 34.5559 49.5655)" fill="white"/>
<ellipse cx="270.457" cy="51.4568" rx="10.1942" ry="10.1942" transform="rotate(-23.9729 270.457 51.4568)" fill="white"/>
<ellipse cx="37.3" cy="50.2805" rx="3.98957" ry="3.98957" transform="rotate(-23.9729 37.3 50.2805)" fill="#1B1B1B"/>
<ellipse cx="54.402" cy="53.8323" rx="10.1942" ry="10.1942" transform="rotate(-23.9729 54.402 53.8323)" fill="white"/>
<ellipse cx="290.457" cy="51.4568" rx="10.1942" ry="10.1942" transform="rotate(-23.9729 290.457 51.4568)" fill="white"/>
<ellipse cx="50.9072" cy="53.4514" rx="3.98957" ry="3.98957" transform="rotate(-23.9729 50.9072 53.4514)" fill="#1B1B1B"/>
<ellipse cx="50.9072" cy="53.4514" rx="3.98957" ry="3.98957" transform="rotate(-23.9729 50.9072 53.4514)" fill="#1B1B1B"/>
<ellipse cx="50.9072" cy="53.4514" rx="3.98957" ry="3.98957" transform="rotate(-23.9729 50.9072 53.4514)" fill="#1B1B1B"/>
<ellipse cx="50.9072" cy="53.4514" rx="3.98957" ry="3.98957" transform="rotate(-23.9729 50.9072 53.4514)" fill="#1B1B1B"/>
<circle cx="40.8919" cy="65.0106" r="2.74646" transform="rotate(-23.9729 40.8919 65.0106)" fill="#383838"/>
<path fill-rule="evenodd" clip-rule="evenodd" d="M106.623 38.0408C107.206 37.8778 107.81 38.2176 107.973 38.7999C108.186 39.561 108.339 40.7559 108.074 41.9167C107.799 43.1264 107.037 44.3757 105.409 44.8898C103.922 45.3595 102.673 45.0746 101.744 44.4601C100.862 43.8767 100.32 43.0346 100.075 42.4036C99.8556 41.8401 100.135 41.2056 100.698 40.9864C101.262 40.7673 101.896 41.0465 102.115 41.61C102.228 41.8986 102.513 42.3437 102.952 42.6339C103.343 42.8929 103.908 43.0677 104.75 42.8018C105.451 42.5803 105.788 42.0928 105.939 41.4303C106.101 40.7189 106.009 39.9063 105.864 39.3903C105.701 38.808 106.041 38.2039 106.623 38.0408Z" fill="black"/>
<path fill-rule="evenodd" clip-rule="evenodd" d="M120.702 32.0523C121.284 31.8893 121.888 32.2291 122.051 32.8114C122.264 33.5724 122.417 34.7674 122.152 35.9282C121.877 37.1379 121.115 38.3872 119.488 38.9013C118 39.371 116.751 39.0861 115.822 38.4716C114.94 37.8882 114.398 37.046 114.153 36.4151C113.934 35.8516 114.213 35.2171 114.777 34.9979C115.34 34.7788 115.975 35.0579 116.194 35.6215C116.306 35.91 116.592 36.3551 117.03 36.6453C117.422 36.9043 117.986 37.0792 118.828 36.8133C119.53 36.5918 119.867 36.1043 120.017 35.4418C120.18 34.7304 120.087 33.9178 119.943 33.4018C119.779 32.8195 120.119 32.2153 120.702 32.0523Z" fill="black"/>
<path fill-rule="evenodd" clip-rule="evenodd" d="M118.11 48.0243C118.701 48.1504 119.079 48.732 118.953 49.3233C118.766 50.1968 118.15 51.1443 117.429 51.9078C116.691 52.6886 115.699 53.4312 114.596 53.7795C113.659 54.0753 112.57 54.312 111.539 54.3894C110.553 54.4634 109.433 54.4078 108.573 53.941C108.041 53.6525 107.844 52.9878 108.133 52.4564C108.421 51.9251 109.086 51.7281 109.617 52.0166C109.906 52.1734 110.499 52.2717 111.375 52.2059C112.207 52.1435 113.129 51.9467 113.937 51.6915C114.579 51.4887 115.267 51.0075 115.837 50.4041C116.424 49.7833 116.743 49.186 116.811 48.8668C116.937 48.2754 117.519 47.8982 118.11 48.0243Z" fill="#383838"/>
<path d="M285 54C285.842 52.5 287.579 51.0974 288.917 51.0087C290.703 50.8903 292.131 51.9987 293 53.1465" stroke="black" stroke-width="2" stroke-linecap="round"/>
<path d="M268 54C268.842 52.5 270.579 51.0974 271.917 51.0087C273.703 50.8903 275.131 51.9987 276 53.1465" stroke="black" stroke-width="2" stroke-linecap="round"/>
<path d="M272 70.5C273.063 72.6251 276.201 73.4718 278.959 73.462C281.767 73.452 284.882 72.6885 286.5 70.5" stroke="#383838" stroke-width="2" stroke-linecap="round"/>
<defs>
<filter id="filter0_d_2564_46" x="130.981" y="33.2715" width="103.762" height="86.6672" filterUnits="userSpaceOnUse" color-interpolation-filters="sRGB">
<feFlood flood-opacity="0" result="BackgroundImageFix"/>
<feColorMatrix in="SourceAlpha" type="matrix" values="0 0 0 0 0 0 0 0 0 0 0 0 0 0 0 0 0 0 127 0" result="hardAlpha"/>
<feOffset dy="4"/>
<feGaussianBlur stdDeviation="2"/>
<feColorMatrix type="matrix" values="0 0 0 0 0 0 0 0 0 0 0 0 0 0 0 0 0 0 0.25 0"/>
<feBlend mode="normal" in2="BackgroundImageFix" result="effect1_dropShadow_2564_46"/>
<feBlend mode="normal" in="SourceGraphic" in2="effect1_dropShadow_2564_46" result="shape"/>
</filter>
<filter id="filter1_d_2564_46" x="62.6985" y="8.3374" width="88.3811" height="109.357" filterUnits="userSpaceOnUse" color-interpolation-filters="sRGB">
<feFlood flood-opacity="0" result="BackgroundImageFix"/>
<feColorMatrix in="SourceAlpha" type="matrix" values="0 0 0 0 0 0 0 0 0 0 0 0 0 0 0 0 0 0 127 0" result="hardAlpha"/>
<feOffset dy="4"/>
<feGaussianBlur stdDeviation="2"/>
<feColorMatrix type="matrix" values="0 0 0 0 0 0 0 0 0 0 0 0 0 0 0 0 0 0 0.25 0"/>
<feBlend mode="normal" in2="BackgroundImageFix" result="effect1_dropShadow_2564_46"/>
<feBlend mode="normal" in="SourceGraphic" in2="effect1_dropShadow_2564_46" result="shape"/>
</filter>
<filter id="filter2_d_2564_46" x="0" y="25.7695" width="92.8425" height="93.0139" filterUnits="userSpaceOnUse" color-interpolation-filters="sRGB">
<feFlood flood-opacity="0" result="BackgroundImageFix"/>
<feColorMatrix in="SourceAlpha" type="matrix" values="0 0 0 0 0 0 0 0 0 0 0 0 0 0 0 0 0 0 127 0" result="hardAlpha"/>
<feOffset dy="4"/>
<feGaussianBlur stdDeviation="2"/>
<feColorMatrix type="matrix" values="0 0 0 0 0 0 0 0 0 0 0 0 0 0 0 0 0 0 0.25 0"/>
<feBlend mode="normal" in2="BackgroundImageFix" result="effect1_dropShadow_2564_46"/>
<feBlend mode="normal" in="SourceGraphic" in2="effect1_dropShadow_2564_46" result="shape"/>
</filter>
<filter id="filter3_d_2564_46" x="238" y="26" width="88" height="93" filterUnits="userSpaceOnUse" color-interpolation-filters="sRGB">
<feFlood flood-opacity="0" result="BackgroundImageFix"/>
<feColorMatrix in="SourceAlpha" type="matrix" values="0 0 0 0 0 0 0 0 0 0 0 0 0 0 0 0 0 0 127 0" result="hardAlpha"/>
<feOffset dy="4"/>
<feGaussianBlur stdDeviation="2"/>
<feColorMatrix type="matrix" values="0 0 0 0 0 0 0 0 0 0 0 0 0 0 0 0 0 0 0.25 0"/>
<feBlend mode="normal" in2="BackgroundImageFix" result="effect1_dropShadow_2564_46"/>
<feBlend mode="normal" in="SourceGraphic" in2="effect1_dropShadow_2564_46" result="shape"/>
</filter>
<linearGradient id="paint0_linear_2564_46" x1="163.5" y1="99" x2="163.5" y2="161" gradientUnits="userSpaceOnUse">
<stop offset="1" stop-color="white"/>
<stop stop-color="#4F81FF"/>
</linearGradient>
</defs>
</svg>
