<svg width="28" height="29" viewBox="0 0 28 29" fill="none" xmlns="http://www.w3.org/2000/svg">
<g id="meat 1">
<g id=" meat 1">
<path id="Vector" d="M11.2997 19.6538L8.92515 22.0283C9.27898 22.4397 9.48125 22.9598 9.49829 23.5021C9.47711 24.0525 9.24351 24.5731 8.84654 24.9548C8.44956 25.3365 7.92011 25.5496 7.3694 25.5492C6.8265 25.5492 6.30584 25.3335 5.92196 24.9496C5.53807 24.5657 5.3224 24.045 5.3224 23.5021C4.7795 23.5021 4.25884 23.2865 3.87495 22.9026C3.49106 22.5187 3.27539 21.998 3.27539 21.4551C3.27498 20.9044 3.48802 20.375 3.86973 19.978C4.25143 19.581 4.77209 19.3475 5.3224 19.3263C5.86474 19.3433 6.38489 19.5456 6.79626 19.8994L9.17078 17.5249" stroke="white" stroke-width="2" stroke-linecap="round" stroke-linejoin="round"/>
<path id="Vector_2" d="M22.2716 6.55297L23.4998 7.78117C24.2849 8.5778 24.7249 9.65136 24.7249 10.7698C24.7249 11.8883 24.2849 12.9618 23.4998 13.7584L23.0085 14.2497C20.7232 16.4801 17.9041 18.0871 14.8205 18.9169L11.3815 19.7357L10.2352 18.5894L9.08887 17.443L9.98955 14.0041C10.7541 10.9178 12.3715 8.10872 14.6567 5.89794L15.148 5.32476C15.9446 4.53969 17.0182 4.09961 18.1366 4.09961C19.2551 4.09961 20.3286 4.53969 21.1253 5.32476L22.2716 6.55297Z" stroke="white" stroke-width="2" stroke-linecap="round" stroke-linejoin="round"/>
</g>
</g>
</svg>
