<svg width="36" height="34" viewBox="0 0 36 34" fill="none" xmlns="http://www.w3.org/2000/svg">
<g id="Group">
<path id="Vector" fill-rule="evenodd" clip-rule="evenodd" d="M17.9997 27.445C15.6816 27.4424 13.4593 26.5204 11.8202 24.8813C10.181 23.2421 9.25901 21.0198 9.25637 18.7017C9.25857 16.3834 10.1804 14.1606 11.8196 12.5211C13.4587 10.8816 15.6813 9.95936 17.9997 9.95671C20.3181 9.95936 22.5407 10.8816 24.1798 12.5211C25.819 14.1606 26.7408 16.3834 26.743 18.7017C26.7404 21.0198 25.8184 23.2421 24.1792 24.8813C22.5401 26.5204 20.3178 27.4424 17.9997 27.445M31.5214 5.56004H26.598L24.743 1.94504C24.4489 1.37276 24.0027 0.892645 23.4534 0.557451C22.9042 0.222257 22.2732 0.04496 21.6297 0.045044H14.2747C13.6186 0.0449659 12.9757 0.229312 12.4193 0.57705C11.8629 0.924788 11.4155 1.42191 11.128 2.01171L9.40137 5.56004H4.47803C3.92634 5.55983 3.38001 5.6683 2.87025 5.87927C2.36049 6.09024 1.89729 6.39958 1.50711 6.78961C1.11693 7.17963 0.807406 7.64271 0.596232 8.15239C0.385058 8.66206 0.276367 9.20835 0.276367 9.76004V29.095C0.276367 29.6467 0.385058 30.193 0.596232 30.7027C0.807406 31.2124 1.11693 31.6755 1.50711 32.0655C1.89729 32.4555 2.36049 32.7648 2.87025 32.9758C3.38001 33.1868 3.92634 33.2953 4.47803 33.295H31.5214C32.0731 33.2953 32.6194 33.1868 33.1292 32.9758C33.6389 32.7648 34.1021 32.4555 34.4923 32.0655C34.8825 31.6755 35.192 31.2124 35.4032 30.7027C35.6143 30.193 35.723 29.6467 35.723 29.095V9.76004C35.723 9.20835 35.6143 8.66206 35.4032 8.15239C35.192 7.64271 34.8825 7.17963 34.4923 6.78961C34.1021 6.39958 33.6389 6.09024 33.1292 5.87927C32.6194 5.6683 32.0731 5.55983 31.5214 5.56004" fill="#989898"/>
<path id="Vector_2" fill-rule="evenodd" clip-rule="evenodd" d="M17.9999 13.1067C16.5171 13.1085 15.0956 13.6984 14.0473 14.747C12.999 15.7956 12.4095 17.2173 12.4082 18.7C12.4091 20.1829 12.9984 21.6048 14.0468 22.6535C15.0952 23.7023 16.517 24.292 17.9999 24.2934C19.4828 24.292 20.9045 23.7023 21.9529 22.6535C23.0013 21.6048 23.5907 20.1829 23.5915 18.7C23.5902 17.2173 23.0007 15.7956 21.9524 14.747C20.9041 13.6984 19.4826 13.1085 17.9999 13.1067Z" fill="#989898"/>
</g>
</svg>
