<svg width="36" height="34" viewBox="0 0 36 34" fill="none" xmlns="http://www.w3.org/2000/svg">
<g id="Group">
<path id="Vector" fill-rule="evenodd" clip-rule="evenodd" d="M18.2729 27.445C15.9548 27.4424 13.7325 26.5204 12.0933 24.8813C10.4542 23.2421 9.53221 21.0198 9.52956 18.7017C9.53177 16.3834 10.4536 14.1606 12.0928 12.5211C13.7319 10.8816 15.9545 9.95936 18.2729 9.95671C20.5912 9.95936 22.8139 10.8816 24.453 12.5211C26.0922 14.1606 27.014 16.3834 27.0162 18.7017C27.0136 21.0198 26.0916 23.2421 24.4524 24.8813C22.8133 26.5204 20.591 27.4424 18.2729 27.445ZM31.7946 5.56004H26.8712L25.0162 1.94504C24.7221 1.37276 24.2759 0.892645 23.7266 0.557451C23.1774 0.222257 22.5463 0.04496 21.9029 0.045044H14.5479C13.8918 0.0449659 13.2489 0.229312 12.6925 0.57705C12.1361 0.924788 11.6887 1.42191 11.4012 2.01171L9.67456 5.56004H4.75123C4.19954 5.55983 3.6532 5.6683 3.14345 5.87927C2.63369 6.09024 2.17048 6.39958 1.7803 6.78961C1.39012 7.17963 1.0806 7.64271 0.869426 8.15239C0.658252 8.66206 0.549561 9.20835 0.549561 9.76004V29.095C0.549561 29.6467 0.658252 30.193 0.869426 30.7027C1.0806 31.2124 1.39012 31.6755 1.7803 32.0655C2.17048 32.4555 2.63369 32.7648 3.14345 32.9758C3.6532 33.1868 4.19954 33.2953 4.75123 33.295H31.7946C32.3463 33.2953 32.8926 33.1868 33.4023 32.9758C33.9121 32.7648 34.3753 32.4555 34.7655 32.0655C35.1557 31.6755 35.4652 31.2124 35.6764 30.7027C35.8875 30.193 35.9962 29.6467 35.9962 29.095V9.76004C35.9962 9.20835 35.8875 8.66206 35.6764 8.15239C35.4652 7.64271 35.1557 7.17963 34.7655 6.78961C34.3753 6.39958 33.9121 6.09024 33.4023 5.87927C32.8926 5.6683 32.3463 5.55983 31.7946 5.56004Z" fill="#646464"/>
<path id="Vector_2" fill-rule="evenodd" clip-rule="evenodd" d="M18.2728 13.1067C16.7901 13.1085 15.3686 13.6984 14.3203 14.747C13.272 15.7956 12.6825 17.2173 12.6812 18.7C12.682 20.1829 13.2714 21.6048 14.3198 22.6535C15.3682 23.7023 16.7899 24.292 18.2728 24.2934C19.7557 24.292 21.1774 23.7023 22.2258 22.6535C23.2743 21.6048 23.8636 20.1829 23.8645 18.7C23.8632 17.2173 23.2737 15.7956 22.2254 14.747C21.1771 13.6984 19.7556 13.1085 18.2728 13.1067Z" fill="#646464"/>
</g>
</svg>
