<svg width="241" height="240" viewBox="0 0 241 240" fill="none" xmlns="http://www.w3.org/2000/svg">
<g id="01" clip-path="url(#clip0_816_2640)">
<rect width="240" height="240" transform="translate(0.368164)" fill="white"/>
<g id="Group 427319701">
<rect id="Rectangle 1" opacity="0.2" x="17.1885" y="131.53" width="206.186" height="61.696" rx="8" fill="url(#paint0_linear_816_2640)"/>
<path id="Ellipse 3" d="M155.459 155.334C134.195 147.425 135.978 119.208 142.145 102.625C148.312 86.0433 176.347 72.6335 202.31 82.2899C228.273 91.9464 236.213 117.073 233.191 135.808C230.937 144.46 224.825 151.262 215.895 155.334C209.947 158.045 202.742 157.646 193.036 157.646C165.164 157.646 163.505 158.326 155.459 155.334Z" fill="#5C8DFF"/>
<ellipse id="Ellipse 14" cx="184.417" cy="102.035" rx="8.58292" ry="10.1942" transform="rotate(-2.24886 184.417 102.035)" fill="white"/>
<ellipse id="Ellipse 15" cx="187.157" cy="102.228" rx="3.98957" ry="3.98957" transform="rotate(-24.5982 187.157 102.228)" fill="#1B1B1B"/>
<ellipse id="Ellipse 16" cx="205.245" cy="103.204" rx="8.58292" ry="10.1942" transform="rotate(-2.24886 205.245 103.204)" fill="white"/>
<ellipse id="Ellipse 17" cx="202.03" cy="102.826" rx="3.98957" ry="3.98957" transform="rotate(-24.5982 202.03 102.826)" fill="#1B1B1B"/>
<path id="Ellipse 18" d="M197.087 114.674C196.558 116.096 194.682 117.614 193.26 117.085C191.838 116.556 191.41 114.181 191.939 112.759C192.467 111.337 193.564 111.917 194.986 112.445C196.407 112.974 197.616 113.252 197.087 114.674Z" fill="#383838"/>
<path id="Ellipse 2" d="M152.027 95.9321C160.038 125.831 155.37 149.984 135.99 155.868C134.063 156.453 131.043 156.489 129.252 156.453C115.504 156.453 101.25 156.453 95.4947 156.453C80.1033 157.162 83.2685 133.03 78.6 115.607C70.5886 85.708 77.1973 63.2947 102.141 56.611C127.085 49.9273 144.015 66.0334 152.027 95.9321Z" fill="#4F81FF"/>
<ellipse id="Ellipse 9" cx="105.499" cy="85.7922" rx="10.1942" ry="10.1942" transform="rotate(-52.7833 105.499 85.7922)" fill="white"/>
<ellipse id="Ellipse 11" cx="124.944" cy="79.9669" rx="10.1942" ry="10.1942" transform="rotate(-52.7833 124.944 79.9669)" fill="white"/>
<path id="Ellipse 1" d="M91.8982 113.89C91.8982 130.121 85.8324 153.062 75.3195 155.82C73.4289 156.316 73.7145 156.557 68.528 156.557C66.9215 156.557 46.6184 156.557 32.7661 156.557C15.8765 156.557 5.68343 132.612 7.20536 113.89C9.10024 90.5794 26.1645 71.5433 49.5518 71.5433C72.9391 71.5433 91.8982 90.5025 91.8982 113.89Z" fill="#6BA1FF"/>
<ellipse id="Ellipse 4" cx="37.6111" cy="95.339" rx="10.1942" ry="10.1942" transform="rotate(-23.9729 37.6111 95.339)" fill="white"/>
<ellipse id="Ellipse 6" cx="40.3553" cy="96.0542" rx="3.98957" ry="3.98957" transform="rotate(-23.9729 40.3553 96.0542)" fill="#1B1B1B"/>
<ellipse id="Ellipse 5" cx="57.4578" cy="99.606" rx="10.1942" ry="10.1942" transform="rotate(-23.9729 57.4578 99.606)" fill="white"/>
<ellipse id="Ellipse 7" cx="53.9627" cy="99.225" rx="3.98957" ry="3.98957" transform="rotate(-23.9729 53.9627 99.225)" fill="#1B1B1B"/>
<circle id="Ellipse 8" cx="43.9477" cy="110.784" r="2.74646" transform="rotate(-23.9729 43.9477 110.784)" fill="#383838"/>
<path id="Vector 125 (Stroke)" fill-rule="evenodd" clip-rule="evenodd" d="M111.027 82.5795C111.609 82.4165 112.213 82.7563 112.376 83.3386C112.589 84.0997 112.742 85.2946 112.477 86.4554C112.202 87.6651 111.441 88.9144 109.813 89.4285C108.325 89.8982 107.076 89.6133 106.147 88.9988C105.265 88.4154 104.723 87.5733 104.478 86.9423C104.259 86.3788 104.538 85.7443 105.102 85.5251C105.665 85.306 106.3 85.5852 106.519 86.1487C106.631 86.4373 106.917 86.8824 107.355 87.1726C107.747 87.4316 108.311 87.6064 109.153 87.3405C109.855 87.119 110.192 86.6315 110.343 85.969C110.505 85.2576 110.412 84.445 110.268 83.929C110.105 83.3467 110.444 82.7426 111.027 82.5795Z" fill="black"/>
<path id="Vector 126 (Stroke)" fill-rule="evenodd" clip-rule="evenodd" d="M123.757 77.826C124.339 77.6629 124.944 78.0028 125.107 78.585C125.32 79.3461 125.472 80.5411 125.208 81.7018C124.932 82.9115 124.171 84.1609 122.543 84.675C121.056 85.1447 119.807 84.8598 118.878 84.2452C117.996 83.6619 117.454 82.8197 117.209 82.1888C116.989 81.6252 117.269 80.9908 117.832 80.7716C118.396 80.5524 119.03 80.8316 119.249 81.3952C119.361 81.6837 119.647 82.1288 120.086 82.419C120.477 82.678 121.042 82.8528 121.884 82.587C122.585 82.3655 122.922 81.878 123.073 81.2155C123.235 80.504 123.143 79.6914 122.998 79.1755C122.835 78.5932 123.175 77.989 123.757 77.826Z" fill="black"/>
<path id="Vector 127 (Stroke)" fill-rule="evenodd" clip-rule="evenodd" d="M123.543 91.7538C124.134 91.8799 124.511 92.4614 124.385 93.0528C124.199 93.9263 123.583 94.8738 122.862 95.6373C122.124 96.4181 121.132 97.1607 120.029 97.509C119.092 97.8048 118.002 98.0415 116.972 98.1189C115.986 98.1929 114.865 98.1373 114.005 97.6705C113.474 97.382 113.277 96.7173 113.565 96.1859C113.854 95.6545 114.519 95.4576 115.05 95.7461C115.339 95.9029 115.931 96.0012 116.808 95.9354C117.64 95.873 118.561 95.6762 119.37 95.421C120.012 95.2182 120.7 94.737 121.27 94.1336C121.856 93.5128 122.176 92.9155 122.244 92.5963C122.37 92.0049 122.951 91.6277 123.543 91.7538Z" fill="#383838"/>
</g>
</g>
<defs>
<linearGradient id="paint0_linear_816_2640" x1="120.282" y1="131.53" x2="120.282" y2="193.226" gradientUnits="userSpaceOnUse">
<stop offset="1" stop-color="white"/>
<stop stop-color="#4F81FF"/>
</linearGradient>
<clipPath id="clip0_816_2640">
<rect width="240" height="240" fill="white" transform="translate(0.368164)"/>
</clipPath>
</defs>
</svg>
