<svg width="17" height="17" viewBox="0 0 17 17" fill="none" xmlns="http://www.w3.org/2000/svg">
<g id="icon" clip-path="url(#clip0_564_89)">
<path id="Vector" d="M8.06868 15.8334C12.1354 15.8334 15.402 12.5667 15.402 8.50004C15.402 4.43337 12.1354 1.16671 8.06868 1.16671C4.00202 1.16671 0.735352 4.43337 0.735352 8.50004C0.735352 12.5667 4.00202 15.8334 8.06868 15.8334ZM8.06868 12.1667C7.66868 12.1667 7.40202 11.9 7.40202 11.5L7.40202 7.10004L5.86868 8.63337C5.60202 8.90004 5.20202 8.90004 4.93535 8.63337C4.66868 8.36671 4.66868 7.96671 4.93535 7.70004L7.60202 5.03337C7.86868 4.76671 8.26868 4.76671 8.53535 5.03337L11.202 7.70004C11.3354 7.83337 11.402 7.96671 11.402 8.16671C11.402 8.36671 11.3354 8.50004 11.202 8.63337C10.9354 8.90004 10.5354 8.90004 10.2687 8.63337L8.73535 7.10004L8.73535 11.5C8.73535 11.8334 8.46868 12.1667 8.06868 12.1667Z" fill="#85B1FF"/>
</g>
<defs>
<clipPath id="clip0_564_89">
<rect width="16" height="16" fill="white" transform="translate(0.0688477 0.5)"/>
</clipPath>
</defs>
</svg>
