<svg width="17" height="16" viewBox="0 0 17 16" fill="none" xmlns="http://www.w3.org/2000/svg">
<g id="icon" clip-path="url(#clip0_564_574)">
<path id="Vector" fill-rule="evenodd" clip-rule="evenodd" d="M11.0634 8.70729H5.06335C4.96868 8.7102 4.87439 8.69406 4.78607 8.65984C4.69775 8.62562 4.61721 8.57401 4.54921 8.50807C4.48122 8.44213 4.42716 8.36321 4.39024 8.27598C4.35333 8.18876 4.33431 8.09501 4.33431 8.00029C4.33431 7.90558 4.35333 7.81182 4.39024 7.7246C4.42716 7.63737 4.48122 7.55845 4.54921 7.49251C4.61721 7.42657 4.69775 7.37496 4.78607 7.34074C4.87439 7.30652 4.96868 7.29038 5.06335 7.29329H11.0634C11.2471 7.29893 11.4214 7.3759 11.5494 7.50787C11.6774 7.63984 11.749 7.81646 11.749 8.00029C11.749 8.18413 11.6774 8.36074 11.5494 8.49272C11.4214 8.62469 11.2471 8.70165 11.0634 8.70729ZM8.06868 0.666626C4.01868 0.666626 0.735352 3.94996 0.735352 7.99996C0.735352 12.0506 4.01868 15.3333 8.06868 15.3333C12.1187 15.3333 15.402 12.0506 15.402 7.99996C15.402 3.94996 12.1187 0.666626 8.06868 0.666626Z" fill="#85B1FF"/>
</g>
<defs>
<clipPath id="clip0_564_574">
<rect width="16" height="16" fill="white" transform="translate(0.0688477)"/>
</clipPath>
</defs>
</svg>
