<svg width="17" height="16" viewBox="0 0 17 16" fill="none" xmlns="http://www.w3.org/2000/svg">
<g id="icon" clip-path="url(#clip0_564_445)">
<path id="Vector" d="M0.735351 8.00004C0.735351 12.0667 4.00202 15.3334 8.06869 15.3334C12.1354 15.3334 15.402 12.0667 15.402 8.00004C15.402 3.93337 12.1354 0.666707 8.06868 0.666708C4.00202 0.666708 0.735351 3.93337 0.735351 8.00004ZM8.73535 5.00004L8.73535 9.40004L10.2687 7.86671C10.5354 7.60004 10.9354 7.60004 11.202 7.86671C11.3354 8.00004 11.402 8.20004 11.402 8.33337C11.402 8.46671 11.3354 8.66671 11.202 8.80004L8.53535 11.4667C8.26868 11.7334 7.86869 11.7334 7.60202 11.4667L4.93535 8.80004C4.66868 8.53337 4.66868 8.13337 4.93535 7.86671C5.20202 7.60004 5.60202 7.60004 5.86868 7.86671L7.40202 9.40004L7.40202 5.00004C7.40202 4.60004 7.66868 4.33337 8.06868 4.33337C8.46868 4.33337 8.73535 4.66671 8.73535 5.00004Z" fill="#85B1FF"/>
</g>
<defs>
<clipPath id="clip0_564_445">
<rect width="16" height="16" fill="white" transform="translate(0.0688477)"/>
</clipPath>
</defs>
</svg>
